<?xml version="1.0" encoding="utf-8"?>
<!-- Generator: Adobe Illustrator 22.1.0, SVG Export Plug-In . SVG Version: 6.00 Build 0)  -->
<svg version="1.1" id="Calque_1" xmlns="http://www.w3.org/2000/svg" xmlns:xlink="http://www.w3.org/1999/xlink" x="0px" y="0px"
	 viewBox="0 0 677.3 145.9" style="enable-background:new 0 0 677.3 145.9;" xml:space="preserve">
<style type="text/css">
	.st0{fill:#16AFB7;}
	.st1{fill:#5CD08F;}
</style>
<g>
	<path class="st0" d="M163.6,92.9c0-2.1,1.1-3.9,3.3-5.3c1.1-0.7,2.3-1.1,3.6-1.1c1.9,0,3.6,0.8,5.2,2.4c3.1,3.6,6.5,6.3,10.1,8.1
		c3.6,1.8,7.9,2.7,13,2.8c4-0.1,7.5-1,10.6-2.7c3.1-1.7,4.6-4.5,4.6-8.4c0-3.6-1.5-6.3-4.6-8.2c-3.1-1.9-7.6-3.7-13.6-5.3
		c-5.9-1.6-10.7-3.3-14.6-5.1c-3.9-1.8-7.1-4.3-9.8-7.6c-2.7-3.3-4-7.7-3.9-13c0-4.7,1.4-8.9,4.1-12.4c2.7-3.5,6.3-6.3,10.8-8.3
		c4.5-2,9.3-2.9,14.6-2.9c5,0,10,1,15,2.9c5,1.9,9,4.8,12.1,8.7c1.2,1.5,1.9,3,1.9,4.6c0,1.7-0.9,3.3-2.6,4.9
		c-1.1,0.9-2.4,1.4-3.9,1.4c-1.9,0-3.4-0.7-4.6-1.9c-2.2-2.5-4.9-4.5-8.1-5.9c-3.2-1.4-6.7-2.1-10.6-2.1c-4,0-7.4,0.8-10.2,2.4
		c-2.8,1.6-4.2,4.4-4.2,8.2c0.1,3.7,1.7,6.4,4.7,8.2c3.1,1.8,7.8,3.6,14.2,5.3c5.5,1.5,10.2,3.1,13.8,4.8c3.7,1.7,6.7,4.2,9.2,7.5
		c2.5,3.3,3.7,7.7,3.7,13c0,4.9-1.5,9.2-4.3,12.8c-2.9,3.6-6.6,6.4-11.2,8.3c-4.6,1.9-9.4,2.8-14.6,2.8c-6.6,0-12.7-1.3-18.3-3.6
		c-5.6-2.3-10.3-6.1-14.2-11.1C164.1,95.7,163.6,94.3,163.6,92.9z"/>
	<path class="st0" d="M315.1,71.6c-1.5,1.3-3.2,1.9-5.2,1.9l-55.4-0.4c0.7,7.7,3.5,13.8,8.6,18.5c5.1,4.7,11.3,7,18.6,7.1
		c5,0,9.1-0.7,12.3-2.1c3.2-1.4,6-3.3,8.4-5.6c1.6-0.9,3.1-1.4,4.6-1.4c1.8,0,3.3,0.7,4.5,1.9c1.2,1.3,1.8,2.7,1.8,4.4
		c0,2.2-1.1,4.2-3.2,6c-3.1,3-7.1,5.6-12.2,7.6c-5.1,2.1-10.2,3.1-15.4,3c-8.5-0.1-16-1.9-22.4-5.5c-6.4-3.6-11.4-8.6-14.8-15.1
		c-3.5-6.4-5.2-13.7-5.1-21.8c0.1-8.8,1.9-16.5,5.6-23.2c3.7-6.6,8.5-11.7,14.4-15.2c6-3.5,12.3-5.3,19.2-5.2c6.7,0,13,1.8,18.8,5.3
		c5.8,3.5,10.5,8.3,14.1,14.4c3.5,6.1,5.3,12.9,5.4,20.5C317.3,68.7,316.5,70.3,315.1,71.6z M263.8,45.3c-4.3,3.3-7.2,8.4-8.6,15.3
		l46.4,0.3l0-1.3c-0.5-5.6-2.9-10.1-7.4-13.7c-4.4-3.6-9.5-5.4-15.1-5.5C273.2,40.4,268.1,42,263.8,45.3z"/>
	<path class="st0" d="M383.2,29.5c2,1.4,3,3.2,3,5.3c0,2.5-0.7,4.4-2,5.7c-1.3,1.3-2.9,1.9-4.8,1.9c-0.9,0-2.4-0.3-4.2-1
		c-2.2-0.7-3.9-1.1-5.2-1.1c-3.3,0-6.4,1.1-9.5,3.3c-3.1,2.2-5.7,5.3-7.6,9.2c-2,3.9-3,8.3-3,13.1l-0.3,37.9c0,2.1-0.7,3.9-2.2,5.3
		c-1.4,1.5-3.2,2.2-5.4,2.2c-2.2,0-4-0.7-5.3-2.2c-1.4-1.4-2-3.2-2-5.4l0.5-67.4c0-2.1,0.7-3.9,2.2-5.3c1.4-1.5,3.2-2.2,5.3-2.2
		c2.2,0,4,0.8,5.4,2.2c1.4,1.5,2.1,3.3,2.1,5.4l-0.1,8c2.3-5.1,5.8-9.3,10.5-12.4c4.6-3.2,9.9-4.8,15.8-4.8
		C378.9,27.3,381.2,28,383.2,29.5z"/>
	<path class="st0" d="M460.8,33.8c5.7,3.7,10.2,8.8,13.5,15.3c3.3,6.5,4.9,13.9,4.8,22.1c-0.1,8.2-1.8,15.5-5.1,21.9
		c-3.4,6.4-7.9,11.5-13.7,15.1c-5.8,3.6-12.2,5.4-19.1,5.4c-5.5,0-10.5-1.3-15.2-3.7c-4.7-2.4-8.5-5.4-11.4-8.9l-0.3,34.9
		c0,2.1-0.7,3.9-2.2,5.3c-1.4,1.5-3.2,2.2-5.4,2.2c-2.1,0-3.9-0.7-5.3-2.2c-1.4-1.4-2.1-3.2-2.1-5.4l0.7-99c0-2.2,0.7-4,2.1-5.5
		c1.4-1.5,3.2-2.2,5.4-2.2c2.2,0,4,0.8,5.4,2.2c1.4,1.5,2.1,3.3,2.1,5.5l0,4.6c2.5-3.7,6.2-6.8,11.1-9.4c4.8-2.6,10-3.9,15.5-3.8
		C448.6,28.3,455,30.2,460.8,33.8z M452.3,96c3.9-2.5,6.9-5.9,9.1-10.2c2.2-4.3,3.3-9.2,3.3-14.7c0-5.5-1-10.4-3.1-14.7
		c-2.1-4.4-5.1-7.8-9-10.4c-3.9-2.5-8.2-3.8-13-3.9c-4.9,0-9.3,1.2-13.2,3.6c-3.9,2.4-6.9,5.9-9.1,10.2c-2.2,4.4-3.3,9.3-3.3,14.8
		c0,5.5,1,10.4,3.1,14.8c2.1,4.4,5.1,7.9,9,10.4c3.9,2.5,8.3,3.8,13.2,3.8C444,99.7,448.4,98.5,452.3,96z"/>
	<path class="st0" d="M496.9,17.3c-1.3-1.1-1.9-2.9-1.9-5.3l0-2.5c0-2.5,0.7-4.3,2.2-5.3c1.4-1,3.6-1.5,6.5-1.5
		c2.9,0,5.1,0.6,6.4,1.7c1.3,1.1,1.9,2.9,1.9,5.3l0,2.5c0,2.5-0.7,4.3-2.1,5.3c-1.4,1-3.5,1.5-6.5,1.5
		C500.3,18.9,498.2,18.4,496.9,17.3z M508.1,110.4c-1.4,1.5-3.2,2.2-5.4,2.2c-2.1,0-3.9-0.8-5.3-2.2c-1.4-1.5-2.1-3.3-2.1-5.4
		l0.5-68.2c0-2.1,0.7-3.9,2.2-5.3c1.4-1.5,3.2-2.2,5.3-2.2c2.2,0,4,0.8,5.4,2.2c1.4,1.5,2.1,3.3,2.1,5.4l-0.5,68.2
		C510.3,107.2,509.6,109,508.1,110.4z"/>
	<path class="st0" d="M589,32.8c5.5,2.7,8.2,6,8.2,10.1c0,1.8-0.6,3.4-1.8,4.8c-1.2,1.4-2.6,2.1-4.4,2.1c-1.4,0-2.4-0.2-3.2-0.7
		c-0.8-0.4-1.9-1.1-3.2-2.1c-0.6-0.6-1.6-1.4-3-2.2c-1.3-0.6-3-1.2-5.3-1.6c-2.3-0.4-4.4-0.7-6.3-0.7c-5.5,0-10.3,1.2-14.5,3.7
		c-4.2,2.5-7.5,6-9.8,10.4c-2.3,4.4-3.5,9.4-3.6,14.8c0,5.6,1,10.6,3.3,15c2.2,4.4,5.4,7.9,9.4,10.5c4.1,2.5,8.7,3.8,14,3.9
		c5.5,0,9.9-0.8,13.2-2.4c0.7-0.4,1.7-1.1,3-2c1.1-0.8,2-1.5,2.8-1.9c0.8-0.4,1.8-0.6,2.9-0.6c2.1,0,3.7,0.7,4.9,2
		c1.2,1.3,1.8,3,1.8,5.1c0,2.2-1.4,4.4-4.2,6.5c-2.8,2.1-6.5,3.9-11.2,5.2c-4.7,1.3-9.7,2-15,1.9c-8-0.1-15-2-21-5.7
		c-6.1-3.8-10.7-8.9-14-15.5c-3.3-6.6-4.9-13.9-4.8-22c0.1-8.1,1.8-15.4,5.4-21.9c3.5-6.5,8.4-11.6,14.6-15.3
		c6.2-3.7,13.3-5.5,21.3-5.4C576.6,28.8,583.5,30.1,589,32.8z"/>
	<path class="st0" d="M669.7,94.6c-3.7,6.5-8.8,11.5-15.1,15.2c-6.4,3.6-13.4,5.4-21.1,5.4c-7.7-0.1-14.7-1.9-21-5.7
		c-6.3-3.7-11.3-8.8-14.9-15.4c-3.6-6.5-5.4-13.9-5.3-22.1c0.1-8.2,1.9-15.6,5.7-22.2c3.7-6.6,8.8-11.7,15.1-15.3
		c6.4-3.6,13.4-5.4,21.1-5.4c7.7,0.1,14.6,1.9,21,5.7c6.3,3.7,11.3,8.9,14.9,15.5c3.6,6.6,5.4,14.1,5.3,22.2
		C675.3,80.8,673.4,88.2,669.7,94.6z M657,57.3c-2.3-4.5-5.5-8-9.5-10.5c-4-2.5-8.5-3.8-13.4-3.8c-4.9,0-9.4,1.2-13.5,3.6
		c-4.1,2.4-7.3,5.9-9.7,10.3c-2.4,4.4-3.6,9.5-3.7,15.2c0,5.6,1.1,10.6,3.4,15c2.3,4.4,5.5,7.9,9.5,10.4c4,2.5,8.5,3.8,13.4,3.8
		c4.9,0,9.4-1.2,13.5-3.6c4.1-2.4,7.3-5.8,9.7-10.2c2.4-4.4,3.6-9.4,3.7-14.9C660.4,66.9,659.3,61.8,657,57.3z"/>
</g>
<g>
	<path class="st1" d="M121.4,69.4c0,32.1-26,58.1-58.2,58.1h-0.1v0.1H5v-11.3l43.8-43.8l14.3,14.3l3.3,3.3L114.5,42
		C118.9,50.2,121.4,59.5,121.4,69.4z"/>
	<path class="st0" d="M104.2,28.2l-36,36L50.7,46.8l-0.2,0.2L50.4,47L27.8,69.6L8.4,89L5,92.4V69.6h0.1v-0.2
		c0-18.2,8.3-34.4,21.4-45.1c0.3-0.3,0.6-0.5,1-0.8c9.6-7.5,21.6-12,34.7-12.3c0.4,0,0.7,0,1.1,0c6.9,0,13.5,1.2,19.6,3.4
		c7.7,2.7,14.6,7.1,20.4,12.6c0,0,0,0,0,0C103.6,27.6,103.9,27.9,104.2,28.2z"/>
</g>
</svg>
