<svg xmlns="http://www.w3.org/2000/svg" viewBox="0 0 320.43 48.82">
  <defs>
    <style>
      .ba390a45-7369-4a24-be0d-eee8194ef70e {
        fill: #231f20;
      }

      .\33 042e955-1a57-411e-a794-1d04289fe13e {
        fill: #a7a9ac;
      }

      .\35 9451f53-c43e-48ab-a220-352198c4a525 {
        fill: #5a5b5d;
      }
    </style>
  </defs>
  <title>Asset 1</title>
  <g id="c195611e-2814-4ce4-9cc2-e278d806a27e" data-name="Layer 2">
    <g id="3b57bf24-ed1f-4092-bc85-b2a339393842" data-name="Layer 1">
      <g>
        <path class="ba390a45-7369-4a24-be0d-eee8194ef70e" d="M.87,19.75H3.05V11h11.2v8.73h2.18V.36H14.25V9H3.05V.36H.87V19.75Zm27.46-2.33a7.63,7.63,0,0,1-4-4.25,8.47,8.47,0,0,1-.56-3.12V10a8.33,8.33,0,0,1,.56-3.1,8,8,0,0,1,1.57-2.52,7.25,7.25,0,0,1,2.39-1.71,7.59,7.59,0,0,1,3.07-.62,7.26,7.26,0,0,1,3.06.64A7.59,7.59,0,0,1,36.82,4.4a7.81,7.81,0,0,1,1.59,2.54A8.46,8.46,0,0,1,39,10.05v.06a8.33,8.33,0,0,1-.57,3.1,8.1,8.1,0,0,1-1.56,2.52,7.4,7.4,0,0,1-2.4,1.71,7.5,7.5,0,0,1-3.06.62,7.2,7.2,0,0,1-3.06-.64Zm7.05,1.84a9.72,9.72,0,0,0,3.13-2.18,9.83,9.83,0,0,0,2-3.2,10.38,10.38,0,0,0,.72-3.83s0,0,0-.05a10.43,10.43,0,0,0-.7-3.81,9.89,9.89,0,0,0-2-3.18A9.63,9.63,0,0,0,35.42.83a10.52,10.52,0,0,0-8.07,0,9.7,9.7,0,0,0-5.16,5.39,10.37,10.37,0,0,0-.72,3.82v.06a10.43,10.43,0,0,0,.71,3.81,9.59,9.59,0,0,0,5.13,5.36,9.89,9.89,0,0,0,4,.8,9.73,9.73,0,0,0,4-.82Zm22,.25a6.79,6.79,0,0,0,2.55-1.62,7.32,7.32,0,0,0,1.65-2.68,11.17,11.17,0,0,0,.58-3.74V.36H60V11.63a6.61,6.61,0,0,1-1.58,4.8A5.72,5.72,0,0,1,54.1,18a5.64,5.64,0,0,1-4.36-1.69,6.87,6.87,0,0,1-1.56-4.84V.36H46V11.63a10.39,10.39,0,0,0,.58,3.63,7.28,7.28,0,0,0,1.65,2.65,6.87,6.87,0,0,0,2.55,1.6,9.48,9.48,0,0,0,3.28.54,9.62,9.62,0,0,0,3.31-.54Zm19.71.13a6.18,6.18,0,0,0,2.08-1.11,5.2,5.2,0,0,0,1.36-1.73A5.06,5.06,0,0,0,81,14.54v0A4.27,4.27,0,0,0,79.46,11a11.41,11.41,0,0,0-4.78-2,19.32,19.32,0,0,1-2.63-.7,5.63,5.63,0,0,1-1.6-.84,2.47,2.47,0,0,1-.81-1,3.17,3.17,0,0,1-.22-1.23V5.18A2.76,2.76,0,0,1,70.53,3a4.65,4.65,0,0,1,3-.9,8.41,8.41,0,0,1,2.87.5,9.53,9.53,0,0,1,2.72,1.6l1.28-1.68A11.36,11.36,0,0,0,77.33.68,10.53,10.53,0,0,0,73.6.08a7.91,7.91,0,0,0-2.54.4,6.62,6.62,0,0,0-2,1.11A5,5,0,0,0,67.7,3.27a4.82,4.82,0,0,0-.47,2.1v.06a5.15,5.15,0,0,0,.39,2.08,4.23,4.23,0,0,0,1.2,1.55,7,7,0,0,0,2,1.13,19.3,19.3,0,0,0,2.9.83,21.1,21.1,0,0,1,2.51.7,5.35,5.35,0,0,1,1.54.8,2.53,2.53,0,0,1,.78,1,3.14,3.14,0,0,1,.22,1.21v0a2.88,2.88,0,0,1-1.18,2.37,4.91,4.91,0,0,1-3.14.93,8.85,8.85,0,0,1-3.57-.68,11.44,11.44,0,0,1-3.08-2.06l-1.35,1.6a11.74,11.74,0,0,0,3.67,2.34,11.4,11.4,0,0,0,4.25.77,8.73,8.73,0,0,0,2.66-.39Zm8.8.11H100v-2h-12V11H98.64V9H88.06V2.33H99.89v-2h-14V19.75Zm33.7-2.33a7.63,7.63,0,0,1-4-4.25,8.68,8.68,0,0,1-.56-3.12V10a8.54,8.54,0,0,1,.56-3.1,8,8,0,0,1,1.57-2.52,7.19,7.19,0,0,1,2.4-1.71,7.5,7.5,0,0,1,3.06-.62,7.26,7.26,0,0,1,3.06.64,7.59,7.59,0,0,1,2.42,1.71,7.81,7.81,0,0,1,1.59,2.54,8.46,8.46,0,0,1,.57,3.11v.06a8.33,8.33,0,0,1-.57,3.1,8.1,8.1,0,0,1-1.56,2.52,7.4,7.4,0,0,1-2.4,1.71,7.5,7.5,0,0,1-3.06.62,7.2,7.2,0,0,1-3.06-.64Zm7.05,1.84a9.72,9.72,0,0,0,3.13-2.18,9.83,9.83,0,0,0,2-3.2,10.38,10.38,0,0,0,.72-3.83s0,0,0-.05a10.43,10.43,0,0,0-.7-3.81A9.59,9.59,0,0,0,126.66.83,10,10,0,0,0,115.46,3a9.83,9.83,0,0,0-2,3.2,10.17,10.17,0,0,0-.72,3.82v.06a10.43,10.43,0,0,0,.7,3.81,9.59,9.59,0,0,0,5.13,5.36,9.93,9.93,0,0,0,4,.8,9.73,9.73,0,0,0,4-.82Zm10.91.49h2.19V11.3h10.5v-2h-10.5V2.38h11.75v-2H137.53V19.75Zm37.55-.1a8.08,8.08,0,0,0,2.7-1.3,5.88,5.88,0,0,0,1.72-2.06,6.17,6.17,0,0,0,.61-2.75v0a4.83,4.83,0,0,0-.6-2.49,5.34,5.34,0,0,0-1.69-1.76A10.09,10.09,0,0,0,175.2,8a28.58,28.58,0,0,0-3.38-.8A11.51,11.51,0,0,1,170.55,7a4.05,4.05,0,0,1-.79-.29,1.06,1.06,0,0,1-.4-.32.66.66,0,0,1-.11-.36V5.93a.65.65,0,0,1,.34-.58,2,2,0,0,1,1.07-.23,10.39,10.39,0,0,1,2.9.46A9.87,9.87,0,0,1,176.48,7l3.16-4.38a12,12,0,0,0-3.81-2,16.72,16.72,0,0,0-5-.66,11.53,11.53,0,0,0-3.53.5,7.42,7.42,0,0,0-2.57,1.38A5.88,5.88,0,0,0,163.2,4a6.18,6.18,0,0,0-.54,2.58v0a4.72,4.72,0,0,0,.66,2.59,5.49,5.49,0,0,0,1.79,1.73,10.69,10.69,0,0,0,2.6,1.14c1,.29,2,.55,3.12.77a10,10,0,0,1,2.12.59c.37.18.56.41.56.69v.05a.68.68,0,0,1-.38.61,2.7,2.7,0,0,1-1.28.23,12,12,0,0,1-3.46-.53,10.13,10.13,0,0,1-3.32-1.75l-3.47,4.13A12.14,12.14,0,0,0,166,19.29a18,18,0,0,0,5.53.82,12.57,12.57,0,0,0,3.53-.46Zm11.9.1h6.48V5.84h5.7V.36H181.27V5.84H187V19.75Zm22.21-7.2L211,7.84l1.78,4.71Zm-9.56,7.2h6.93l1-2.6h6.78l1,2.6h7L214.23.22h-6.42l-8.18,19.53ZM230.1,9.58V5.79h2.83a3.08,3.08,0,0,1,1.8.46,1.57,1.57,0,0,1,.66,1.39V7.7a1.66,1.66,0,0,1-.66,1.39,3,3,0,0,1-1.83.49Zm-6.48,10.17h6.48V14.21h1.39l3.65,5.54h7.4L238,13.16a7.13,7.13,0,0,0,2.79-2.33,6.09,6.09,0,0,0,1-3.6V7.17a6.9,6.9,0,0,0-.45-2.6,5.66,5.66,0,0,0-1.33-2A6.91,6.91,0,0,0,237.37,1a12.84,12.84,0,0,0-4.28-.6h-9.47V19.75Zm25.18,0h6.48V5.84H261V.36h-17.9V5.84h5.71V19.75Zm27.38-.13A7.78,7.78,0,0,0,279.23,18a7.24,7.24,0,0,0,1.95-2.85,11.51,11.51,0,0,0,.69-4.24V.36h-6.59V11.11a3.32,3.32,0,0,1-.83,2.53,3,3,0,0,1-2.16.76,3,3,0,0,1-2.15-.81A3.54,3.54,0,0,1,269.3,11V.36h-6.6V11.05a11.3,11.3,0,0,0,.68,4.13A7.34,7.34,0,0,0,265.31,18a7.64,7.64,0,0,0,3,1.62,13.72,13.72,0,0,0,3.92.52,14,14,0,0,0,3.95-.52Zm14.64-9.76V5.54h1.77a3.3,3.3,0,0,1,2,.54,1.86,1.86,0,0,1,.72,1.59v.06a1.82,1.82,0,0,1-.76,1.59,3.39,3.39,0,0,1-2,.54Zm-6.48,9.89h6.48V14.49h2.1a13.35,13.35,0,0,0,3.59-.46,7.91,7.91,0,0,0,2.79-1.37,6.31,6.31,0,0,0,1.8-2.26,7.16,7.16,0,0,0,.63-3.09v0a6.85,6.85,0,0,0-.63-3,6,6,0,0,0-1.78-2.16A7.85,7.85,0,0,0,296.59.79a13.34,13.34,0,0,0-3.53-.43h-8.72V19.75Zm31.06-.1a8.08,8.08,0,0,0,2.7-1.3,5.88,5.88,0,0,0,1.72-2.06,6,6,0,0,0,.61-2.75v0a4.83,4.83,0,0,0-.6-2.49,5.24,5.24,0,0,0-1.69-1.76A10,10,0,0,0,315.53,8a29.56,29.56,0,0,0-3.38-.8A11.76,11.76,0,0,1,310.87,7a4.32,4.32,0,0,1-.79-.29,1.14,1.14,0,0,1-.4-.32.66.66,0,0,1-.11-.36V5.93a.66.66,0,0,1,.35-.58A2,2,0,0,1,311,5.12a10.39,10.39,0,0,1,2.9.46A9.75,9.75,0,0,1,316.8,7L320,2.66a12,12,0,0,0-3.81-2A16.65,16.65,0,0,0,311.21,0a11.59,11.59,0,0,0-3.54.5,7.42,7.42,0,0,0-2.57,1.38A6,6,0,0,0,303.52,4,6.18,6.18,0,0,0,303,6.54v0a4.72,4.72,0,0,0,.66,2.59,5.59,5.59,0,0,0,1.79,1.73,10.86,10.86,0,0,0,2.6,1.14c1,.29,2,.55,3.12.77a10,10,0,0,1,2.12.59q.57.27.57.69v.05a.67.67,0,0,1-.39.61,2.65,2.65,0,0,1-1.27.23,12,12,0,0,1-3.47-.53,10.13,10.13,0,0,1-3.32-1.75l-3.46,4.13a12.09,12.09,0,0,0,4.41,2.45,18,18,0,0,0,5.53.82,12.57,12.57,0,0,0,3.53-.46Z"/>
        <polygon class="3042e955-1a57-411e-a794-1d04289fe13e" points="1 28.65 1 30.61 320.33 30.61 320.33 28.65 1 28.65 1 28.65"/>
        <path class="59451f53-c43e-48ab-a220-352198c4a525" d="M2.64,46.61c1.55,0,2.59-1.2,2.59-3s-1-3-2.59-3a2.48,2.48,0,0,0-2,1v-.91H0v8H.62V45.53a2.48,2.48,0,0,0,2,1.08Zm-.11-.56A2.39,2.39,0,0,1,.62,45V42.12a2.36,2.36,0,0,1,1.91-1c1.3,0,2,1.07,2,2.47s-.73,2.49-2,2.49Zm6.74.56a2.82,2.82,0,0,0,2.8-3,2.79,2.79,0,1,0-5.57,0,2.81,2.81,0,0,0,2.77,3Zm0-.56a2.25,2.25,0,0,1-2.11-2.49,2.25,2.25,0,0,1,2.11-2.47,2.24,2.24,0,0,1,2.12,2.47,2.24,2.24,0,0,1-2.12,2.49Zm9.87.42L21,40.67h-.67l-1.53,4.92-1.64-4.92h-.54L15,45.59l-1.53-4.92H12.8l1.89,5.8h.6l1.63-5,1.62,5Zm5.51.14a3,3,0,0,0,2.27-.93l-.33-.41a2.52,2.52,0,0,1-1.89.8,2.26,2.26,0,0,1-2.27-2.3h4.85V43.6a2.77,2.77,0,0,0-2.74-3.07,3,3,0,0,0,.11,6.08Zm2-3.33H22.43a2.18,2.18,0,0,1,2.1-2.21,2.12,2.12,0,0,1,2.11,2.21Zm2.83,3.19V42.24a2.2,2.2,0,0,1,1.64-1,1.56,1.56,0,0,1,.31,0v-.68a2.48,2.48,0,0,0-2,1.12v-1h-.63v5.8Zm5.55.14a3,3,0,0,0,2.27-.93L37,45.27a2.54,2.54,0,0,1-1.9.8,2.26,2.26,0,0,1-2.27-2.3h4.85V43.6a2.77,2.77,0,0,0-2.74-3.07A3,3,0,0,0,35,46.61Zm2-3.33H32.8a2.18,2.18,0,0,1,2.1-2.21A2.13,2.13,0,0,1,37,43.28Zm7.15,3.19v-8h-.64v3.15a2.44,2.44,0,0,0-2-1.08c-1.54,0-2.58,1.21-2.58,3s1,3,2.58,3a2.47,2.47,0,0,0,2-1.07v.93Zm-2.55-.42c-1.28,0-2-1.07-2-2.47s.74-2.49,2-2.49a2.29,2.29,0,0,1,1.91,1.06V45a2.32,2.32,0,0,1-1.91,1Zm8.22-1V42.15a2.36,2.36,0,0,1,1.91-1.06c1.3,0,2,1.08,2,2.49s-.73,2.47-2,2.47a2.36,2.36,0,0,1-1.91-1Zm0,1.45v-.93a2.49,2.49,0,0,0,2,1.07c1.54,0,2.59-1.17,2.59-3s-1-3-2.59-3a2.48,2.48,0,0,0-2,1.08V38.46h-.62v8Zm5.74,2.26a2.39,2.39,0,0,0,.63.09,1.53,1.53,0,0,0,1.47-1.08l3-7.07H60l-2.08,5.07-2.12-5.07h-.69l2.46,5.85-.46,1c-.24.55-.5.71-.89.71a1.44,1.44,0,0,1-.5-.1l-.11.57ZM66.1,46.61a1.31,1.31,0,0,0,1-.36l-.24-.48a.88.88,0,0,1-.65.28c-.41,0-.6-.33-.6-.79v-4h1.18v-.55H65.6V39.09H65v1.58H64v.55h1v4.13c0,.79.37,1.26,1.13,1.26Zm6.68-.14V42.39c0-1.31-.64-1.86-1.82-1.86a2.92,2.92,0,0,0-2.09,1V38.46h-.62v8h.62V42.09a2.48,2.48,0,0,1,1.89-1c.84,0,1.4.31,1.4,1.43v3.95Zm4.47.14a3,3,0,0,0,2.26-.93l-.32-.41a2.53,2.53,0,0,1-1.9.8A2.25,2.25,0,0,1,75,43.77h4.84V43.6a2.77,2.77,0,0,0-2.73-3.07,3,3,0,0,0,.11,6.08Zm2-3.33H75a2.17,2.17,0,0,1,2.1-2.21,2.12,2.12,0,0,1,2.11,2.21ZM89,46.47v-.63H85.14V38.46h-.69v8Zm5.82,0v-5.8h-.62v4.42a2.52,2.52,0,0,1-1.88,1c-.84,0-1.41-.31-1.41-1.44V40.67h-.62v4.08a1.62,1.62,0,0,0,1.82,1.86,3,3,0,0,0,2.09-1v.85Zm6.58,0-2.3-3,2.16-2.82h-.74l-1.79,2.39L97,40.67h-.74l2.16,2.82-2.29,3h.74l1.93-2.56,1.92,2.56Zm3.47.14a3,3,0,0,0,2.27-.93l-.33-.41a2.52,2.52,0,0,1-1.89.8,2.26,2.26,0,0,1-2.27-2.3h4.85V43.6a2.77,2.77,0,0,0-2.74-3.07,3,3,0,0,0,.11,6.08Zm2-3.33h-4.21a2.18,2.18,0,0,1,2.1-2.21,2.12,2.12,0,0,1,2.11,2.21Zm9.73,3.19V42.29c0-1.16-.52-1.76-1.59-1.76a2.43,2.43,0,0,0-1.92,1.09,1.44,1.44,0,0,0-1.52-1.09,2.52,2.52,0,0,0-1.87,1v-.88h-.63v5.8h.63V42.09a2.2,2.2,0,0,1,1.66-1c.82,0,1.16.5,1.16,1.32v4.06h.63v-4.4a2.18,2.18,0,0,1,1.66-1c.81,0,1.16.5,1.16,1.32v4.06ZM119.14,45V42.15a2.36,2.36,0,0,1,1.91-1.06c1.3,0,2,1.08,2,2.49s-.73,2.47-2,2.47a2.36,2.36,0,0,1-1.91-1Zm0,1.45v-.93a2.49,2.49,0,0,0,2,1.07c1.54,0,2.59-1.17,2.59-3s-1-3-2.59-3a2.48,2.48,0,0,0-2,1.08V38.46h-.62v8Zm8.68.14a2.82,2.82,0,0,0,2.79-3,2.79,2.79,0,1,0-5.57,0,2.81,2.81,0,0,0,2.78,3Zm0-.56a2.26,2.26,0,0,1-2.12-2.49,2.14,2.14,0,1,1,4.24,0,2.25,2.25,0,0,1-2.12,2.49Zm8.89.42v-5.8h-.62v4.42a2.52,2.52,0,0,1-1.89,1c-.84,0-1.4-.31-1.4-1.44V40.67h-.62v4.08c0,1.31.64,1.86,1.82,1.86a3,3,0,0,0,2.09-1v.85Zm2.53,0V42.24a2.24,2.24,0,0,1,1.65-1,1.56,1.56,0,0,1,.31,0v-.68a2.48,2.48,0,0,0-2,1.12v-1h-.62v5.8Zm5.36,2.35c1.4,0,2.6-.64,2.6-2.4V40.67h-.64v.94a2.44,2.44,0,0,0-2-1.08c-1.54,0-2.58,1.2-2.58,3s1,3,2.58,3a2.47,2.47,0,0,0,2-1.09v.92a1.76,1.76,0,0,1-2,1.84,2.25,2.25,0,0,1-1.94-.82l-.36.5a2.8,2.8,0,0,0,2.3.88Zm.06-2.8c-1.29,0-2-1.05-2-2.46s.74-2.47,2-2.47a2.3,2.3,0,0,1,1.9,1.06V45a2.32,2.32,0,0,1-1.9,1.05Zm11.36.59A3.62,3.62,0,0,0,159,45.18l-.59-.36A2.9,2.9,0,0,1,156,46a3.52,3.52,0,0,1,0-7,2.9,2.9,0,0,1,2.34,1.17l.57-.37A3.56,3.56,0,0,0,156,38.33a4.14,4.14,0,0,0,0,8.28Zm8.81-.14V42.39A1.62,1.62,0,0,0,163,40.53a2.9,2.9,0,0,0-2.08,1V38.46h-.63v8h.63V42.09a2.47,2.47,0,0,1,1.88-1c.84,0,1.41.31,1.41,1.43v3.95Zm6.17,0V42.4c0-1.31-.93-1.87-2.11-1.87a2.8,2.8,0,0,0-2.23,1l.35.44a2.23,2.23,0,0,1,1.82-.86,1.38,1.38,0,0,1,1.55,1.34V43.6a2.51,2.51,0,0,0-2-.83,1.92,1.92,0,1,0,0,3.84,2.53,2.53,0,0,0,2-.82v.68Zm-2.37-.35a1.44,1.44,0,1,1,0-2.86,2.17,2.17,0,0,1,1.75.8v1.27a2.17,2.17,0,0,1-1.75.79Zm11.8.35V42.29c0-1.16-.52-1.76-1.59-1.76a2.43,2.43,0,0,0-1.92,1.09,1.44,1.44,0,0,0-1.52-1.09,2.52,2.52,0,0,0-1.87,1v-.88h-.62v5.8h.62V42.09a2.22,2.22,0,0,1,1.67-1c.81,0,1.15.5,1.15,1.32v4.06H177v-4.4a2.19,2.19,0,0,1,1.66-1c.82,0,1.17.5,1.17,1.32v4.06ZM183,45V42.15a2.33,2.33,0,0,1,1.91-1.06c1.29,0,2,1.08,2,2.49s-.73,2.47-2,2.47A2.33,2.33,0,0,1,183,45Zm0,1.45v-.93a2.45,2.45,0,0,0,2,1.07c1.54,0,2.59-1.17,2.59-3s-1-3-2.59-3a2.46,2.46,0,0,0-2,1.08V38.46h-.63v8Zm8.79.14a3,3,0,0,0,2.27-.93l-.33-.41a2.52,2.52,0,0,1-1.89.8,2.26,2.26,0,0,1-2.27-2.3h4.85V43.6a2.77,2.77,0,0,0-2.74-3.07,3,3,0,0,0,.11,6.08Zm2-3.33h-4.21a2.18,2.18,0,0,1,2.1-2.21,2.12,2.12,0,0,1,2.11,2.21Zm2.82,3.19V42.24a2.24,2.24,0,0,1,1.65-1,1.56,1.56,0,0,1,.31,0v-.68a2.51,2.51,0,0,0-2,1.12v-1H196v5.8Zm8.74.14a2.82,2.82,0,0,0,2.8-3,2.79,2.79,0,1,0-5.57,0,2.81,2.81,0,0,0,2.77,3Zm0-.56a2.25,2.25,0,0,1-2.11-2.49,2.14,2.14,0,1,1,4.24,0,2.25,2.25,0,0,1-2.13,2.49Zm5.14.42V41.22h1.17v-.55h-1.17v-.53c0-.78.33-1.23,1-1.23a1.08,1.08,0,0,1,.75.3l.3-.46a1.56,1.56,0,0,0-1.11-.41c-1,0-1.57.67-1.57,1.8v.53h-1v.55h1v5.25Zm9.22.14a3.61,3.61,0,0,0,2.93-1.43l-.58-.36A2.92,2.92,0,0,1,219.67,46a3.53,3.53,0,0,1,0-7A2.92,2.92,0,0,1,222,40.12l.57-.37a3.57,3.57,0,0,0-2.92-1.42,4.14,4.14,0,0,0,0,8.28Zm6.73,0a2.82,2.82,0,0,0,2.8-3,2.79,2.79,0,1,0-5.57,0,2.81,2.81,0,0,0,2.77,3Zm0-.56a2.25,2.25,0,0,1-2.11-2.49,2.14,2.14,0,1,1,4.24,0,2.25,2.25,0,0,1-2.13,2.49Zm11.9.42V42.29c0-1.16-.51-1.76-1.58-1.76a2.43,2.43,0,0,0-1.92,1.09,1.44,1.44,0,0,0-1.52-1.09,2.56,2.56,0,0,0-1.88,1v-.88h-.62v5.8h.62V42.09a2.24,2.24,0,0,1,1.67-1c.82,0,1.16.5,1.16,1.32v4.06h.63v-4.4a2.18,2.18,0,0,1,1.66-1c.81,0,1.16.5,1.16,1.32v4.06Zm9.44,0V42.29c0-1.16-.51-1.76-1.58-1.76a2.4,2.4,0,0,0-1.92,1.09,1.44,1.44,0,0,0-1.52-1.09,2.54,2.54,0,0,0-1.88,1v-.88h-.62v5.8h.62V42.09a2.24,2.24,0,0,1,1.67-1c.82,0,1.16.5,1.16,1.32v4.06h.63v-4.4a2.16,2.16,0,0,1,1.66-1c.81,0,1.16.5,1.16,1.32v4.06Zm4.48.14a3,3,0,0,0,2.27-.93l-.33-.41a2.52,2.52,0,0,1-1.89.8,2.26,2.26,0,0,1-2.27-2.3h4.85V43.6a2.77,2.77,0,0,0-2.74-3.07,3,3,0,0,0,.11,6.08Zm2-3.33H250a2.18,2.18,0,0,1,2.1-2.21,2.12,2.12,0,0,1,2.11,2.21ZM257,46.47V42.24a2.2,2.2,0,0,1,1.64-1,1.56,1.56,0,0,1,.31,0v-.68A2.48,2.48,0,0,0,257,41.67v-1h-.63v5.8Zm5.49.14a2.38,2.38,0,0,0,2.05-1l-.43-.39a1.85,1.85,0,0,1-1.59.82,2.25,2.25,0,0,1-2.18-2.49,2.23,2.23,0,0,1,2.18-2.47,1.85,1.85,0,0,1,1.59.8l.43-.38a2.39,2.39,0,0,0-2.05-1,3,3,0,0,0,0,6.08Zm5.85,0a3,3,0,0,0,2.27-.93l-.32-.41a2.54,2.54,0,0,1-1.9.8,2.26,2.26,0,0,1-2.27-2.3H271V43.6a2.77,2.77,0,0,0-2.73-3.07,3,3,0,0,0,.1,6.08Zm2-3.33h-4.22a2.19,2.19,0,0,1,2.1-2.21,2.13,2.13,0,0,1,2.12,2.21Z"/>
      </g>
    </g>
  </g>
</svg>
