<?xml version="1.0" encoding="utf-8"?>
<!-- Generator: Adobe Illustrator 22.1.0, SVG Export Plug-In . SVG Version: 6.00 Build 0)  -->
<svg version="1.1" id="Calque_1" xmlns="http://www.w3.org/2000/svg" xmlns:xlink="http://www.w3.org/1999/xlink" x="0px" y="0px"
	 viewBox="0 0 1000 1000" style="enable-background:new 0 0 1000 1000;" xml:space="preserve">
<style type="text/css">
	.st0{fill:#16AFB7;}
	.st1{fill:#5CD08F;}
</style>
<g>
	<path class="st0" d="M137,770.4c0-3,1.6-5.5,4.7-7.6c1.5-1,3.2-1.5,5.1-1.5c2.7,0,5.1,1.2,7.3,3.4c4.4,5.1,9.2,8.9,14.3,11.5
		s11.2,3.9,18.4,3.9c5.7-0.1,10.6-1.4,15-3.8c4.3-2.4,6.5-6.4,6.6-11.9c0-5.1-2.1-8.9-6.5-11.7c-4.4-2.7-10.8-5.2-19.3-7.5
		c-8.3-2.3-15.2-4.7-20.7-7.2s-10.1-6.1-13.9-10.8c-3.8-4.7-5.6-10.9-5.6-18.5c0-6.7,2-12.6,5.8-17.6s8.9-8.9,15.3-11.7
		c6.3-2.8,13.2-4.1,20.7-4.1c7.1,0.1,14.2,1.4,21.3,4.2c7,2.7,12.8,6.9,17.2,12.4c1.8,2.1,2.6,4.3,2.6,6.5c0,2.4-1.2,4.7-3.6,6.9
		c-1.5,1.3-3.4,2-5.6,2c-2.7,0-4.8-0.9-6.5-2.7c-3.1-3.6-6.9-6.4-11.4-8.3c-4.5-2-9.5-3-15-3c-5.7,0-10.5,1.1-14.4,3.4
		c-4,2.3-6,6.2-6,11.7c0.1,5.2,2.4,9.1,6.7,11.7c4.4,2.6,11.1,5.1,20.1,7.5c7.9,2.1,14.4,4.4,19.6,6.8c5.2,2.4,9.6,6,13.1,10.7
		s5.3,10.9,5.2,18.5c-0.1,7-2.1,13-6.2,18.1c-4.1,5.1-9.3,9-15.8,11.7s-13.4,4-20.7,4c-9.4-0.1-18-1.8-26-5.1
		c-7.9-3.3-14.6-8.6-20.1-15.8C137.6,774.3,137,772.3,137,770.4z"/>
	<path class="st0" d="M351.7,740.1c-2.1,1.8-4.6,2.8-7.4,2.7l-78.6-0.6c1,10.9,5,19.6,12.2,26.2c7.2,6.6,16,9.9,26.4,10
		c7.1,0.1,13-0.9,17.4-3c4.5-2,8.4-4.7,11.9-7.9c2.2-1.3,4.4-2,6.5-2c2.5,0,4.6,0.9,6.3,2.7c1.7,1.8,2.5,3.9,2.5,6.3
		c0,3.1-1.5,5.9-4.5,8.4c-4.3,4.3-10.1,7.9-17.3,10.8c-7.2,2.9-14.5,4.4-21.9,4.3c-12.1-0.1-22.6-2.7-31.8-7.8
		c-9.1-5.1-16.1-12.2-21-21.4c-4.9-9.1-7.3-19.4-7.2-30.9c0.1-12.5,2.7-23.5,7.9-32.9s12-16.6,20.5-21.6c8.4-5,17.5-7.5,27.2-7.4
		c9.5,0.1,18.4,2.6,26.7,7.6c8.3,5,14.9,11.8,19.9,20.5s7.5,18.4,7.6,29.1C354.9,736,353.8,738.3,351.7,740.1z M279,702.8
		c-6.1,4.6-10.2,11.9-12.2,21.7l65.8,0.5v-1.8c-0.7-7.9-4.2-14.4-10.5-19.5s-13.4-7.7-21.5-7.7C292.4,695.8,285.1,698.1,279,702.8z"
		/>
	<path class="st0" d="M448.3,680.4c2.8,2,4.2,4.5,4.2,7.5c0,3.6-1,6.3-2.9,8.1s-4.1,2.8-6.8,2.7c-1.3,0-3.3-0.5-6-1.4
		c-3.1-1.1-5.6-1.6-7.4-1.6c-4.6,0-9.1,1.5-13.5,4.7s-8,7.5-10.8,13.1s-4.2,11.8-4.3,18.6l-0.4,53.8c0,3-1,5.5-3.1,7.6
		c-2,2.1-4.6,3.1-7.7,3.1s-5.6-1-7.6-3.1c-1.9-2-2.9-4.6-2.8-7.7l0.7-95.5c0-3,1-5.5,3.1-7.6c2-2.1,4.5-3.1,7.5-3.1
		c3.1,0,5.7,1.1,7.7,3.2c2,2.1,3,4.6,3,7.6l-0.1,11.4c3.3-7.3,8.3-13.1,14.9-17.6s14-6.8,22.4-6.9
		C442.2,677.3,445.5,678.3,448.3,680.4z"/>
	<path class="st0" d="M558.3,686.5c8.1,5.2,14.5,12.4,19.1,21.7s6.9,19.7,6.8,31.3c-0.1,11.6-2.5,22-7.3,31.1s-11.2,16.3-19.5,21.4
		c-8.2,5.2-17.2,7.7-27.1,7.6c-7.7-0.1-14.9-1.8-21.6-5.3c-6.7-3.5-12.1-7.7-16.2-12.6l-0.4,49.6c0,3-1,5.5-3.1,7.6
		c-2,2.1-4.6,3.1-7.7,3.1c-3,0-5.5-1-7.5-3.1c-2-2-3-4.6-3-7.7l1-140.4c0-3.1,1-5.7,3-7.8c1.9-2.1,4.5-3.1,7.6-3.1s5.7,1.1,7.7,3.2
		c2,2.1,3,4.7,3,7.8v6.5c3.6-5.2,8.8-9.6,15.7-13.3s14.2-5.5,21.9-5.4C541.1,678.7,550.2,681.3,558.3,686.5z M546.3,774.7
		c5.5-3.5,9.8-8.4,12.9-14.5c3.1-6.2,4.7-13.1,4.7-20.8c0.1-7.7-1.4-14.7-4.4-20.9s-7.2-11.1-12.7-14.7c-5.5-3.6-11.6-5.4-18.5-5.5
		c-7-0.1-13.3,1.7-18.8,5.1c-5.5,3.5-9.8,8.3-12.9,14.5s-4.7,13.2-4.7,20.9c-0.1,7.7,1.4,14.7,4.4,21s7.2,11.2,12.7,14.7
		s11.7,5.3,18.7,5.4C534.6,780,540.8,778.3,546.3,774.7z"/>
	<path class="st0" d="M609.5,663c-1.9-1.6-2.8-4.1-2.7-7.5v-3.6c0-3.6,1-6.1,3.1-7.6c2-1.5,5.1-2.2,9.3-2.2s7.2,0.8,9,2.4
		c1.8,1.6,2.8,4.1,2.7,7.5v3.6c0,3.6-1,6.1-3,7.6c-1.9,1.5-5,2.2-9.2,2.2C614.5,665.4,611.4,664.6,609.5,663z M625.5,795.2
		c-2,2.1-4.6,3.1-7.7,3.1c-3,0-5.5-1.1-7.5-3.2c-2-2.1-3-4.6-3-7.6l0.7-96.6c0-3,1-5.5,3.1-7.6c2-2.1,4.5-3.1,7.5-3.1
		c3.1,0,5.7,1.1,7.7,3.2c2,2.1,3,4.6,3,7.6l-0.7,96.6C628.6,790.6,627.5,793.1,625.5,795.2z"/>
	<path class="st0" d="M740.2,685.1c7.8,3.8,11.7,8.6,11.6,14.4c0,2.5-0.9,4.8-2.5,6.8c-1.7,2-3.7,3-6.3,3c-1.9,0-3.5-0.3-4.6-0.9
		c-1.1-0.6-2.6-1.6-4.6-2.9c-0.9-0.9-2.3-1.9-4.2-3.2c-1.8-0.9-4.3-1.7-7.6-2.3s-6.2-0.9-8.9-1c-7.7-0.1-14.6,1.7-20.6,5.2
		s-10.6,8.4-13.9,14.7c-3.3,6.3-5,13.3-5.1,21.1c-0.1,7.9,1.5,15,4.6,21.2c3.2,6.3,7.6,11.2,13.4,14.8c5.8,3.6,12.4,5.4,19.8,5.5
		c7.7,0.1,14-1.1,18.8-3.4c1-0.6,2.5-1.5,4.3-2.9c1.5-1.2,2.8-2.1,3.9-2.7c1.1-0.6,2.5-0.9,4.1-0.9c3,0,5.3,1,7,2.8
		c1.7,1.9,2.5,4.3,2.5,7.3c0,3.1-2,6.2-6,9.2s-9.3,5.5-15.9,7.4c-6.6,1.9-13.7,2.8-21.3,2.7c-11.3-0.1-21.3-2.8-29.9-8.1
		c-8.6-5.3-15.2-12.7-19.8-22s-6.9-19.7-6.8-31.2c0.1-11.5,2.6-21.8,7.6-31.1s11.9-16.5,20.7-21.7s18.9-7.8,30.2-7.7
		C722.6,679.4,732.4,681.3,740.2,685.1z"/>
	<path class="st0" d="M854.6,772.8c-5.3,9.2-12.4,16.4-21.5,21.5c-9,5.1-19,7.7-29.9,7.6c-10.9-0.1-20.8-2.8-29.7-8
		c-9-5.3-16-12.5-21.2-21.8c-5.1-9.3-7.7-19.7-7.6-31.3c0.1-11.6,2.8-22.1,8-31.4c5.3-9.3,12.4-16.6,21.5-21.7
		c9-5.1,19-7.7,29.9-7.6c10.9,0.1,20.8,2.8,29.7,8c9,5.3,16,12.6,21.2,22c5.1,9.4,7.7,19.9,7.6,31.5
		C862.5,753.2,859.9,763.6,854.6,772.8z M836.6,719.8c-3.3-6.3-7.8-11.3-13.5-14.8s-12.1-5.3-19-5.4c-7-0.1-13.4,1.7-19.1,5.1
		c-5.8,3.5-10.3,8.3-13.7,14.6s-5.1,13.5-5.2,21.5c-0.1,7.9,1.6,15,4.9,21.2c3.3,6.3,7.8,11.2,13.5,14.7s12,5.3,19,5.4
		c7,0.1,13.4-1.6,19.1-5.1c5.8-3.5,10.3-8.3,13.7-14.5s5.1-13.3,5.2-21.2C841.5,733.4,839.9,726.2,836.6,719.8z"/>
</g>
<g>
	<path class="st1" d="M707.2,351.3c0,108-87.5,195.5-195.5,195.5h-0.4v0.5H316v-37.9L463.3,362l47.9,47.9l11,11L684.1,259
		C698.8,286.5,707.2,317.9,707.2,351.3z"/>
	<path class="st0" d="M649.3,212.8L528.2,333.9l-58.6-58.7l-0.8,0.8l-0.2-0.2L392.5,352l-65,65L316,428.5V352h0.2v-0.7
		c0-61.2,28.1-115.8,72-151.6c1-0.9,2.1-1.7,3.2-2.5c32.3-25.2,72.7-40.5,116.7-41.3c1.2,0,2.4-0.1,3.6-0.1c23.2,0,45.4,4,66,11.4
		c25.8,9.2,49,23.7,68.5,42.2c0,0,0,0,0.1,0C647.3,210.7,648.3,211.8,649.3,212.8z"/>
</g>
</svg>
