<?xml version="1.0" encoding="utf-8"?>
<!-- Generator: Adobe Illustrator 12.0.0, SVG Export Plug-In . SVG Version: 6.00 Build 51448)  -->
<!DOCTYPE svg PUBLIC "-//W3C//DTD SVG 1.1//EN" "http://www.w3.org/Graphics/SVG/1.1/DTD/svg11.dtd" [
	<!ENTITY ns_svg "http://www.w3.org/2000/svg">
	<!ENTITY ns_xlink "http://www.w3.org/1999/xlink">
]>
<svg  version="1.1" id="Calque_1" xmlns="&ns_svg;" xmlns:xlink="&ns_xlink;" width="1000" height="1000" viewBox="0 0 1000 1000"
	 overflow="visible" enable-background="new 0 0 1000 1000" xml:space="preserve">
<g>
	<path fill="#5CD08F" d="M999.2,497c0,275.945-223.566,499.509-499.513,499.509h-1.019v1.276H-0.32v-96.84l376.352-376.6
		l122.386,122.388l28.11,28.091l413.648-413.652C977.727,331.431,999.2,411.666,999.2,497z"/>
	<path fill="#16AFB7" d="M851.264,143.142l-309.42,309.41L392.125,302.567l-2.047,2.044l-0.512-0.508l-194.43,194.694
		L29.058,664.875L-0.32,694.254V498.797h0.508V497c0-156.37,71.799-295.873,183.952-387.348c2.561-2.288,5.37-4.337,8.187-6.38
		C274.853,38.895,378.074-0.205,490.495-2.253c3.07,0,6.125-0.247,9.192-0.247c59.286,0,115.998,10.215,168.635,29.116
		c65.923,23.516,125.191,60.559,175.021,107.826c0,0,0,0,0.245,0C846.15,137.762,848.707,140.58,851.264,143.142z"/>
</g>
</svg>
